<svg viewBox="0 0 122 51" xmlns="http://www.w3.org/2000/svg"><g fill="none" fill-rule="evenodd"><path d="m.081 46.01v-30.26c0-1.206.335-2.185 1-2.936.669-.752 1.549-1.127 2.639-1.127 1.949 0 3.172 1.016 3.667 3.048.677-1.09 1.644-1.92 2.899-2.49 1.255-.57 2.602-.855 4.04-.855 2.494 0 4.63.686 6.405 2.057 1.776 1.371 3.118 3.163 4.03 5.377.909 2.214 1.363 4.559 1.363 7.04 0 2.313-.5 4.53-1.499 6.653-.999 2.123-2.424 3.837-4.274 5.142-1.85 1.305-3.94 1.958-6.269 1.958-1.156 0-2.321-.219-3.494-.657-1.173-.438-2.238-1.07-3.197-1.896v8.945c0 .76-.157 1.454-.471 2.081-.314.628-.752 1.111-1.313 1.45-.562.339-1.189.508-1.883.508-1.09 0-1.97-.368-2.639-1.103-.669-.735-1-1.714-1-2.936m7.31-20.715c0 1.966.491 3.725 1.474 5.278.983 1.553 2.399 2.329 4.25 2.329 1.189 0 2.222-.363 3.097-1.09.876-.727 1.528-1.648 1.958-2.763.43-1.115.644-2.284.644-3.506 0-1.222-.215-2.404-.644-3.543-.43-1.14-1.078-2.077-1.945-2.812-.867-.735-1.904-1.103-3.11-1.103-1.239 0-2.292.343-3.159 1.028-.867.686-1.512 1.573-1.933 2.664-.421 1.09-.632 2.263-.632 3.519m21.731 9.936v-19.477c0-1.206.335-2.185 1-2.936.669-.752 1.549-1.127 2.639-1.127.71 0 1.342.169 1.896.508.553.339.987.818 1.301 1.437.314.619.471 1.326.471 2.119v19.477c0 .793-.157 1.499-.471 2.119-.314.619-.752 1.099-1.313 1.437-.562.339-1.189.508-1.883.508-1.09 0-1.97-.376-2.639-1.127-.669-.752-1-1.73-1-2.936m3.643-34.493c.727 0 1.404.19 2.032.57.628.38 1.132.88 1.512 1.499.38.619.57 1.268.57 1.945 0 1.14-.401 2.127-1.202 2.961-.801.834-1.772 1.251-2.912 1.251-1.074 0-2.028-.43-2.862-1.289-.834-.859-1.251-1.834-1.251-2.924 0-1.041.417-1.97 1.251-2.788.834-.818 1.788-1.227 2.862-1.227m7.731 34.493v-19.477c0-1.206.335-2.185 1-2.936.669-.752 1.549-1.127 2.639-1.127.942 0 1.706.24 2.292.719.586.479.946 1.14 1.078 1.982 1.421-1.999 3.766-2.998 7.04-2.998 1.916 0 3.634.392 5.154 1.177 1.52.785 2.709 1.916 3.568 3.395.859 1.479 1.289 3.234 1.289 5.266v14c0 .793-.157 1.499-.471 2.119-.314.619-.752 1.099-1.313 1.437-.562.339-1.189.508-1.883.508-1.09 0-1.97-.376-2.639-1.127-.669-.752-1-1.73-1-2.936v-12.737c0-1.635-.442-2.879-1.326-3.729-.884-.851-2.036-1.276-3.457-1.276-.958 0-1.792.219-2.503.657-.71.438-1.247 1.028-1.611 1.772-.363.743-.545 1.602-.545 2.577v12.737c0 .793-.157 1.499-.471 2.119-.314.619-.752 1.099-1.313 1.437-.562.339-1.189.508-1.883.508-1.09 0-1.97-.376-2.639-1.127-.669-.752-1-1.73-1-2.936m53.2-18.758v18.06c0 1.421-.198 2.569-.595 3.444-.396.876-1.371 1.313-2.924 1.313-.991 0-1.755-.26-2.292-.781-.537-.52-.937-1.293-1.202-2.317-1.933 2.28-4.254 3.42-6.963 3.42-2.247 0-4.295-.603-6.145-1.809-1.85-1.206-3.3-2.879-4.349-5.02-1.049-2.139-1.573-4.555-1.573-7.248 0-2.594.537-4.976 1.611-7.149 1.074-2.172 2.536-3.882 4.386-5.129 1.85-1.247 3.874-1.871 6.071-1.871 1.371 0 2.676.281 3.915.842 1.239.562 2.255 1.396 3.048 2.503.099-.892.483-1.623 1.152-2.193.669-.57 1.45-.855 2.342-.855 1.553 0 2.527.442 2.924 1.326.396.884.595 2.036.595 3.457m-18.733 9.07c0 1.239.219 2.424.657 3.556.438 1.132 1.09 2.048 1.958 2.751.867.702 1.92 1.053 3.159 1.053 1.784 0 3.172-.739 4.163-2.218.991-1.479 1.487-3.192 1.487-5.142 0-1.222-.211-2.408-.632-3.556-.421-1.148-1.066-2.086-1.933-2.812-.867-.727-1.896-1.09-3.085-1.09-1.222 0-2.276.359-3.159 1.078-.884.719-1.54 1.656-1.97 2.812-.43 1.156-.644 2.346-.644 3.568m21.831 7.731l7.409-8.425-6.195-6.963c-.743-.892-1.115-1.768-1.115-2.627 0-.958.384-1.792 1.152-2.503.768-.71 1.64-1.066 2.614-1.066.975 0 1.867.479 2.676 1.437l5.129 6.393 5.129-6.393c.809-.958 1.702-1.437 2.676-1.437.975 0 1.846.359 2.614 1.078.768.719 1.152 1.549 1.152 2.49 0 .859-.372 1.735-1.115 2.627l-6.195 6.963 7.409 8.425c.297.297.541.669.731 1.115.19.446.285.9.285 1.363 0 1.057-.335 1.912-1 2.565-.669.653-1.532.979-2.589.979-.743 0-1.317-.124-1.722-.372-.405-.248-.847-.661-1.326-1.239l-6.05-7.409-6.05 7.409c-.479.578-.921.991-1.326 1.239-.405.248-.979.372-1.722.372-1.057 0-1.92-.326-2.589-.979-.669-.653-1-1.507-1-2.565 0-.396.091-.826.273-1.289.182-.463.43-.859.743-1.189" fill="#b1c861"/></g></svg>